<svg version="1.1" id="Icons" xmlns="http://www.w3.org/2000/svg" xmlns:xlink="http://www.w3.org/1999/xlink" x="0px" y="0px" viewBox="0 0 32 32" style="enable-background:new 0 0 32 32;" xml:space="preserve">
<style type="text/css">
	.st0{fill:none;stroke:#000000;stroke-width:2;stroke-linecap:round;stroke-linejoin:round;stroke-miterlimit:10;}
</style>
<path class="st0" d="M3,25l2.6-4.2c1.5-2.3,4-3.8,6.8-3.8H19v0c0,2.2-1.8,4-4,4h-2" id="id_101" style="stroke: rgb(235, 9, 77);"></path>
<path class="st0" d="M15,21h8l1.2-1.6c1.1-1.5,2.9-2.4,4.8-2.4h0l-2.7,4.8c-1.4,2.6-4.2,4.2-7.1,4.2h0c-4.7,0-9.3,1.4-13.2,4l0,0" id="id_102" style="stroke: rgb(230, 9, 75);"></path>
<path class="st0" d="M20,9c0,2.2-1.8,4-4,4s-4-1.8-4-4c0-3,4-7,4-7S20,6,20,9z" id="id_103" style="stroke: rgb(232, 9, 76);"></path>
</svg>