<svg version="1.1" id="_x30_1_Droplet" xmlns="http://www.w3.org/2000/svg" xmlns:xlink="http://www.w3.org/1999/xlink" x="0px" y="0px" viewBox="0 0 48 48" style="enable-background:new 0 0 48 48;" xml:space="preserve">
<path d="M29.3242,37.7959c-0.3917,0.3886-1.0267,0.3842-1.4156-0.0078c-0.3866-0.3923-0.3833-1.0235,0.0084-1.4121
	c1.7256-1.71,2.0801-4.4863,2.0732-6.5146c-0.002-0.5518,0.4478-1.001,1-1.0029c0.5508,0,0.998,0.4453,1,0.9971
	C31.998,32.2656,31.542,35.5996,29.3242,37.7959z M32.1553,40.623c2.5234-2.501,3.8496-6.2295,3.8354-10.7803
	c-0.0269-8.4346-4.7754-19.1826-11.2915-25.5576c-0.3887-0.3809-1.0098-0.3809-1.3984,0
	c-6.5161,6.375-11.2642,17.124-11.291,25.5576c-0.0142,4.5527,1.313,8.2813,3.8345,10.7793
	c2.2485,2.249,5.2017,3.3721,8.1558,3.3721C26.9531,43.9941,29.9067,42.8701,32.1553,40.623z M33.9907,29.8486
	c0.0122,4.0049-1.1099,7.2402-3.2451,9.3564c-0.0015,0.001-0.0024,0.002-0.0034,0.0029c-3.7168,3.7188-9.7656,3.7158-13.4873-0.0029
	c-2.1353-2.1162-3.2573-5.3516-3.2451-9.3564C14.0337,22.2041,18.1938,12.5225,24,6.4238
	C29.8066,12.5225,33.9663,22.2041,33.9907,29.8486z" id="id_101" style="fill: rgb(235, 7, 83);"></path>
</svg>