<svg width="64" height="64" viewBox="0 0 64 64" fill="none" xmlns="http://www.w3.org/2000/svg">
<path d="M41.84 46.5104C41.4586 46.4357 41.0631 46.5119 40.7367 46.723C40.4104 46.9341 40.1788 47.2637 40.0906 47.6422C40.0025 48.0207 40.0647 48.4187 40.2642 48.7523C40.4636 49.0859 40.7848 49.329 41.16 49.4304C45.23 50.4304 46.5 51.6504 46.5 52.0004C46.5 53.0004 41.42 55.5004 32 55.5004C22.58 55.5004 17.5 53.0004 17.5 52.0004C17.5 51.6504 18.77 50.3804 22.84 49.4304C23.2152 49.329 23.5364 49.0859 23.7358 48.7523C23.9353 48.4187 23.9975 48.0207 23.9094 47.6422C23.8212 47.2637 23.5896 46.9341 23.2633 46.723C22.9369 46.5119 22.5414 46.4357 22.16 46.5104C17.16 47.6804 14.5 49.5804 14.5 52.0004C14.5 56.4704 23.57 58.5004 32 58.5004C40.43 58.5004 49.5 56.5004 49.5 52.0004C49.5 49.5804 46.85 47.6804 41.84 46.5104Z" fill="#ed0942" id="id_101"></path>
<path d="M31 53.1C31.2729 53.3502 31.6298 53.4889 32 53.4889C32.3702 53.4889 32.7271 53.3502 33 53.1C33.73 52.45 50.5 36.93 50.5 27C50.5 22.0935 48.5509 17.3879 45.0815 13.9185C41.6121 10.4491 36.9065 8.5 32 8.5C27.0935 8.5 22.3879 10.4491 18.9185 13.9185C15.4491 17.3879 13.5 22.0935 13.5 27C13.5 36.93 30.27 52.45 31 53.1ZM32 11.5C36.11 11.5026 40.051 13.1365 42.9572 16.0428C45.8635 18.949 47.4974 22.89 47.5 27C47.5 33.68 37.12 45 32 49.94C26.88 45 16.5 33.68 16.5 27C16.5026 22.89 18.1365 18.949 21.0428 16.0428C23.949 13.1365 27.89 11.5026 32 11.5Z" fill="#ed0741" id="id_102"></path>
<path d="M40.5 26C40.5 24.3189 40.0015 22.6755 39.0675 21.2777C38.1335 19.8798 36.806 18.7904 35.2528 18.147C33.6996 17.5037 31.9906 17.3354 30.3417 17.6633C28.6929 17.9913 27.1783 18.8008 25.9896 19.9896C24.8008 21.1783 23.9913 22.6929 23.6633 24.3417C23.3354 25.9906 23.5037 27.6996 24.147 29.2528C24.7904 30.806 25.8798 32.1335 27.2777 33.0675C28.6755 34.0015 30.3189 34.5 32 34.5C34.2535 34.4974 36.414 33.601 38.0075 32.0075C39.601 30.414 40.4974 28.2535 40.5 26V26ZM26.5 26C26.5 24.9122 26.8226 23.8488 27.4269 22.9444C28.0313 22.0399 28.8903 21.3349 29.8952 20.9187C30.9002 20.5024 32.0061 20.3935 33.073 20.6057C34.1399 20.8179 35.1199 21.3417 35.8891 22.1109C36.6583 22.8801 37.1821 23.8601 37.3943 24.927C37.6065 25.9939 37.4976 27.0998 37.0813 28.1048C36.6651 29.1098 35.9601 29.9687 35.0556 30.5731C34.1512 31.1774 33.0878 31.5 32 31.5C30.5421 31.4974 29.1447 30.917 28.1138 29.8862C27.083 28.8553 26.5026 27.4579 26.5 26V26Z" fill="#f00842" id="id_103"></path>
</svg>