<svg version="1.1" id="Layer_1" xmlns="http://www.w3.org/2000/svg" xmlns:xlink="http://www.w3.org/1999/xlink" x="0px" y="0px" viewBox="0 0 162.3504 235.554" enable-background="new 0 0 162.3504 235.554" xml:space="preserve">
<g>
<circle cx="48.8504" cy="22.5" r="22.5" id="id_101" style="fill: rgb(240, 12, 50);"></circle>
<path d="M31.4562,110.2651L17.5778,70.4018c-1.8672-5.3638,0.9775-11.2466,6.3408-13.1143
		c1.0957-0.3813,2.2354-0.5747,3.3872-0.5747c4.3779,0,8.2871,2.7793,9.7271,6.9155l4.2111,12.096
		c0.3524-1.7338,0.6931-3.4112,1.0043-5.0012c2.8691-9.9531-0.8848-21.8652-9.4199-23.9921
		c-8.5371-2.129-20.912,2.5078-25.9473,17.1503c-6.8047,20.174-8.2676,33.3047-5.6816,55.5197
		c2.109,10.8534,7.8113,15.1375,14.1105,16.744c4.5103,14.961,11.0346,47.2861-2.0313,82.5643
		c-2.3975,6.4746,0.9063,13.666,7.3799,16.0635c1.4316,0.5303,2.8984,0.7813,4.3398,0.7813c5.0801,0,9.8564-3.1191,11.7236-8.1611
		c17.9475-48.4573,5.4551-91.2854,0.2258-105.4573c-0.2591-1.9449-0.4174-3.9296-0.5068-5.9351
		C34.1352,114.7953,32.3214,112.7504,31.4562,110.2651z" id="id_102" style="fill: rgb(237, 9, 47);"></path>
<path d="M88.2971,122.0864c1.3569-4.2046-0.9512-8.7134-5.1558-10.0708l-35.7114-11.5269l-12.5693-36.104
		c-1.4526-4.1729-6.0127-6.3774-10.1855-4.9248c-4.1724,1.4526-6.3774,6.0127-4.9248,10.1855l13.8784,39.8638
		c0.8242,2.3682,2.7114,4.2124,5.0977,4.9829l39.5,12.75c0.8169,0.2637,1.645,0.3887,2.4595,0.3887
		C84.0637,127.6308,87.2033,125.4741,88.2971,122.0864z" id="id_103" style="fill: rgb(235, 9, 47);"></path>
<circle cx="113.5" cy="22.5" r="22.5" id="id_104" style="fill: rgb(237, 12, 50);"></circle>
<path d="M129.522,46.7311c-5.4006,1.3458-8.8837,6.6107-9.9891,12.8167c-0.1469,0.4844-0.2531,0.9885-0.3068,1.511l-3.2197,31.2578
		L83.3596,109.669l0.4882,0.1576c5.4043,1.7451,8.3823,7.5615,6.6382,12.9663c-0.1745,0.5405-0.3907,1.058-0.6431,1.5505
		l35.8962-19.0799c0.397,5.6561,0.3784,11.304-0.3367,16.6723c-5.2294,14.1721-17.7215,56.9999,0.2259,105.457
		c1.8672,5.042,6.6435,8.1621,11.7236,8.1611c1.4414,0,2.9082-0.251,4.3398-0.7813c6.4736-2.3975,9.7773-9.5889,7.3799-16.0635
		c-13.0658-35.2766-6.542-67.6024-2.0315-82.5642c6.2992-1.6065,12.0016-5.8905,14.1107-16.744
		c2.586-22.2149,1.1231-35.3457-5.6816-55.5197C150.4341,49.239,138.0591,44.6021,129.522,46.7311z" id="id_105" style="fill: rgb(240, 9, 48);"></path>
</g>
</svg>